<svg width="60" height="60" viewBox="0 0 60 60" fill="none" xmlns="http://www.w3.org/2000/svg">
<path d="M52.08 6.44434H7.92C6.858 6.44434 6 7.30234 6 8.36434V52.5243C6 53.5863 6.858 54.4443 7.92 54.4443H52.08C53.142 54.4443 54 53.5863 54 52.5243V8.36434C54 7.30234 53.142 6.44434 52.08 6.44434ZM46.536 20.4543H42.702C39.696 20.4543 39.114 21.8823 39.114 23.9823V28.6083H46.29L45.354 35.8503H39.114V54.4443H31.632V35.8563H25.374V28.6083H31.632V23.2683C31.632 17.0703 35.418 13.6923 40.95 13.6923C43.602 13.6923 45.876 13.8903 46.542 13.9803V20.4543H46.536Z" fill="#9A9A9A"/>
</svg>
