<svg width="28" height="28" viewBox="0 0 28 28" fill="none" xmlns="http://www.w3.org/2000/svg">
<path d="M14 19.8333C18.2728 19.8333 22.0091 21.671 24.0416 24.4122L21.8926 25.4287C20.2386 23.4683 17.3219 22.1667 14 22.1667C10.678 22.1667 7.76136 23.4683 6.10734 25.4287L3.95923 24.4111C5.99181 21.6705 9.72771 19.8333 14 19.8333ZM14 2.33334C17.2216 2.33334 19.8333 4.94502 19.8333 8.16668V11.6667C19.8333 14.8036 17.3573 17.3621 14.253 17.4946L14 17.5C10.7783 17.5 8.16664 14.8883 8.16664 11.6667V8.16668C8.16664 5.0298 10.6427 2.47122 13.7469 2.33873L14 2.33334ZM14 4.66668C12.136 4.66668 10.6124 6.12375 10.5059 7.96103L10.5 8.16668V11.6667C10.5 13.5997 12.0669 15.1667 14 15.1667C15.864 15.1667 17.3876 13.7096 17.494 11.8724L17.5 11.6667V8.16668C17.5 6.23369 15.9329 4.66668 14 4.66668Z" fill="white"/>
</svg>
