<svg width="44" height="44" viewBox="0 0 44 44" fill="none" xmlns="http://www.w3.org/2000/svg">
<path d="M21.9997 31.1666C28.7141 31.1666 34.5856 34.0543 37.7794 38.3619L34.4024 39.9593C31.8033 36.8787 27.22 34.8333 21.9997 34.8333C16.7795 34.8333 12.1962 36.8787 9.59704 39.9593L6.22144 38.3603C9.41549 34.0536 15.2862 31.1666 21.9997 31.1666ZM21.9997 3.66663C27.0623 3.66663 31.1664 7.77069 31.1664 12.8333V18.3333C31.1664 23.2628 27.2755 27.2833 22.3974 27.4915L21.9997 27.5C16.9371 27.5 12.8331 23.3959 12.8331 18.3333V12.8333C12.8331 7.90392 16.724 3.88329 21.6021 3.6751L21.9997 3.66663ZM21.9997 7.33329C19.0706 7.33329 16.6763 9.62298 16.5091 12.5101L16.4997 12.8333V18.3333C16.4997 21.3709 18.9621 23.8333 21.9997 23.8333C24.9289 23.8333 27.3232 21.5436 27.4904 18.6565L27.4997 18.3333V12.8333C27.4997 9.79573 25.0372 7.33329 21.9997 7.33329Z" fill="black"/>
</svg>
