<svg width="28" height="28" viewBox="0 0 28 28" fill="none" xmlns="http://www.w3.org/2000/svg">
<path d="M4.67244 18.6667V4.66668H2.33911V2.33334H5.83911C6.48345 2.33334 7.00578 2.85568 7.00578 3.50001V17.5H21.5173L23.8506 8.16668H9.33911V5.83334H25.3449C25.9892 5.83334 26.5115 6.35568 26.5115 7.00001C26.5115 7.0954 26.4999 7.19043 26.4767 7.28297L23.56 18.9496C23.4303 19.469 22.9636 19.8333 22.4282 19.8333H5.83911C5.19478 19.8333 4.67244 19.311 4.67244 18.6667ZM7.00578 26.8333C5.71711 26.8333 4.67244 25.7887 4.67244 24.5C4.67244 23.2113 5.71711 22.1667 7.00578 22.1667C8.29444 22.1667 9.33911 23.2113 9.33911 24.5C9.33911 25.7887 8.29444 26.8333 7.00578 26.8333ZM21.0058 26.8333C19.7171 26.8333 18.6725 25.7887 18.6725 24.5C18.6725 23.2113 19.7171 22.1667 21.0058 22.1667C22.2945 22.1667 23.3391 23.2113 23.3391 24.5C23.3391 25.7887 22.2945 26.8333 21.0058 26.8333Z" fill="white"/>
</svg>
