<svg width="44" height="44" viewBox="0 0 44 44" fill="none" xmlns="http://www.w3.org/2000/svg">
<path d="M7.34233 29.3334V7.33335H3.67566V3.66669H9.17566C10.1882 3.66669 11.009 4.48751 11.009 5.50002V27.5H33.8128L37.4794 12.8334H14.6757V9.16669H39.8276C40.8401 9.16669 41.6609 9.98751 41.6609 11C41.6609 11.1499 41.6426 11.2993 41.6061 11.4447L37.0227 29.7779C36.8189 30.5941 36.0855 31.1667 35.2442 31.1667H9.17566C8.16315 31.1667 7.34233 30.3459 7.34233 29.3334ZM11.009 42.1667C8.98395 42.1667 7.34233 40.5251 7.34233 38.5C7.34233 36.4749 8.98395 34.8334 11.009 34.8334C13.034 34.8334 14.6757 36.4749 14.6757 38.5C14.6757 40.5251 13.034 42.1667 11.009 42.1667ZM33.009 42.1667C30.9839 42.1667 29.3424 40.5251 29.3424 38.5C29.3424 36.4749 30.9839 34.8334 33.009 34.8334C35.0341 34.8334 36.6757 36.4749 36.6757 38.5C36.6757 40.5251 35.0341 42.1667 33.009 42.1667Z" fill="black"/>
</svg>
