<svg width="44" height="44" viewBox="0 0 44 44" fill="none" xmlns="http://www.w3.org/2000/svg">
<path d="M23.8853 3.66724C25.9486 3.67065 26.9941 3.68157 27.8976 3.70847L28.2534 3.72009C28.6645 3.7347 29.07 3.75304 29.5589 3.77595C31.5098 3.8661 32.8406 4.1747 34.0094 4.62845C35.2177 5.09443 36.2383 5.72387 37.2573 6.74291C38.2748 7.76193 38.9044 8.78554 39.3719 9.99095C39.824 11.1582 40.1327 12.4904 40.2244 14.4414C40.2462 14.9303 40.2638 15.3358 40.2783 15.7469L40.2898 16.1027C40.3166 17.0061 40.3289 18.0518 40.3327 20.1151L40.3342 21.482C40.3344 21.6491 40.3344 21.8214 40.3344 21.9992L40.3342 22.5164L40.3331 23.8835C40.3296 25.9468 40.3188 26.9925 40.2918 27.8958L40.2801 28.2516C40.2656 28.6628 40.2473 29.0684 40.2244 29.5571C40.1342 31.5082 39.824 32.8388 39.3719 34.0076C38.9058 35.2161 38.2748 36.2367 37.2573 37.2557C36.2383 38.2732 35.2131 38.9026 34.0094 39.3701C32.8406 39.8223 31.5098 40.1309 29.5589 40.2226C29.07 40.2444 28.6645 40.2622 28.2534 40.2765L27.8976 40.288C26.9941 40.315 25.9486 40.3271 23.8853 40.3311L22.5182 40.3326C22.3512 40.3326 22.1789 40.3326 22.001 40.3326H21.4838L20.1167 40.3313C18.0535 40.328 17.0078 40.317 16.1044 40.29L15.7486 40.2785C15.3375 40.2638 14.932 40.2455 14.4431 40.2226C12.4921 40.1325 11.1629 39.8223 9.99266 39.3701C8.78571 38.9042 7.76362 38.2732 6.7446 37.2557C5.72558 36.2367 5.09766 35.2115 4.63016 34.0076C4.17641 32.8388 3.86933 31.5082 3.77766 29.5571C3.75588 29.0684 3.73812 28.6628 3.72373 28.2516L3.71219 27.8958C3.68537 26.9925 3.67314 25.9468 3.66918 23.8835L3.66895 20.1151C3.67236 18.0518 3.68326 17.0061 3.71016 16.1027L3.7218 15.7469C3.73641 15.3358 3.75475 14.9303 3.77766 14.4414C3.86779 12.4889 4.17641 11.1597 4.63016 9.99095C5.09612 8.78401 5.72558 7.76193 6.7446 6.74291C7.76362 5.72387 8.78725 5.09595 9.99266 4.62845C11.1614 4.1747 12.4906 3.86762 14.4431 3.77595C14.932 3.75419 15.3375 3.73643 15.7486 3.72203L16.1044 3.7105C17.0078 3.68366 18.0535 3.67143 20.1167 3.66747L23.8853 3.66724ZM22.001 12.8326C16.9357 12.8326 12.8343 16.9384 12.8343 21.9992C12.8343 27.0645 16.9401 31.1659 22.001 31.1659C27.0663 31.1659 31.1677 27.0601 31.1677 21.9992C31.1677 16.934 27.0618 12.8326 22.001 12.8326ZM22.001 16.4993C25.0387 16.4993 27.501 18.9608 27.501 21.9992C27.501 25.0369 25.0394 27.4992 22.001 27.4992C18.9634 27.4992 16.501 25.0378 16.501 21.9992C16.501 18.9616 18.9625 16.4993 22.001 16.4993ZM31.626 10.0826C30.3623 10.0826 29.3344 11.1091 29.3344 12.3727C29.3344 13.6364 30.3608 14.6644 31.626 14.6644C32.8896 14.6644 33.9177 13.6379 33.9177 12.3727C33.9177 11.1091 32.8879 10.081 31.626 10.0826Z" fill="black"/>
</svg>
