<svg width="44" height="44" viewBox="0 0 44 44" fill="none" xmlns="http://www.w3.org/2000/svg">
<path d="M22.4475 7.33276C23.4267 7.33815 25.8765 7.36184 28.4795 7.4661L29.4024 7.50634C32.0232 7.63042 34.6417 7.84239 35.9404 8.20451C37.6728 8.69117 39.0344 10.1112 39.4945 11.9112C40.2273 14.7695 40.319 20.3483 40.3304 21.6984L40.332 21.9782V21.9978C40.332 21.9978 40.332 22.0046 40.332 22.0176L40.3304 22.2973C40.319 23.6474 40.2273 29.2262 39.4945 32.0846C39.028 33.8912 37.6663 35.3113 35.9404 35.7912C34.6417 36.1533 32.0232 36.3652 29.4024 36.4894L28.4795 36.5295C25.8765 36.6338 23.4267 36.6575 22.4475 36.663L22.0177 36.6644H21.9987C21.9987 36.6644 21.9923 36.6644 21.9796 36.6644L21.5502 36.663C19.4778 36.6516 10.8128 36.5579 8.05693 35.7912C6.32459 35.3045 4.96301 33.8846 4.50275 32.0846C3.77003 29.2262 3.67843 23.6474 3.66699 22.2973V21.6984C3.67843 20.3483 3.77003 14.7695 4.50275 11.9112C4.96939 10.1045 6.33097 8.68452 8.05693 8.20451C10.8128 7.43769 19.4778 7.34417 21.5502 7.33276H22.4475ZM18.332 15.5812V28.4144L29.332 21.9978L18.332 15.5812Z" fill="black"/>
</svg>
