<svg width="68" height="68" viewBox="0 0 68 68" fill="none" xmlns="http://www.w3.org/2000/svg">
<path d="M45.084 55.8281C45.56 54.9441 46.2065 54.2643 47.0225 53.8223C47.7704 53.3803 48.6202 53.1758 49.5381 53.1758C51.136 53.1758 52.4283 53.6176 53.2783 54.6035C54.1283 55.5555 54.5703 56.9157 54.5703 58.6836V67.4561H52.4277V58.9902C52.4277 57.6982 52.1218 56.712 51.5098 55.998C50.8638 55.2841 49.9801 54.9444 48.8242 54.9443C47.7362 54.9443 46.8519 55.3863 46.1719 56.2363C45.4581 57.0863 45.084 58.2082 45.084 59.5V67.4219H42.9424V47.8379H45.084V55.8281ZM64.0225 53.1758C64.7701 53.1758 65.4159 53.2778 65.9258 53.5156V55.6582C65.2118 55.4542 64.5315 55.3516 63.8516 55.3516C62.7638 55.3517 61.8457 55.7944 61.1318 56.7803C60.384 57.6982 60.0439 58.7863 60.0439 60.0781V67.4561H57.9023V53.5498H60.0439V55.9639C60.4179 55.1479 60.8939 54.5016 61.5059 54.0596C62.2198 53.4816 63.0705 53.1758 64.0225 53.1758ZM33.8984 0.578125C47.5323 0.578301 59.2624 9.04439 64.1924 21.1143H59.4316C54.7736 11.5943 45.1518 5.03223 33.9658 5.03223C18.2579 5.03233 5.54199 17.9525 5.54199 33.8984C5.54216 49.8442 18.2579 62.7635 33.9316 62.7637V67.3545H33.8984C15.7764 67.3545 1.08789 52.3938 1.08789 33.9658C1.08805 15.504 15.7765 0.578125 33.8984 0.578125ZM43.9004 21C46.3142 21.0341 48.3205 21.6801 49.8164 23.04C51.1082 24.23 51.8223 25.6921 51.8223 27.46C51.8223 28.65 51.55 29.6361 51.04 30.4521C50.462 31.3021 49.612 31.982 48.4561 32.458V32.5264C49.544 32.8324 50.4964 33.4781 51.2783 34.498C52.1622 35.6199 52.6034 36.8779 52.6035 38.3057C52.6035 40.4136 51.8221 42.0801 50.3262 43.3721C48.7962 44.63 46.6201 45.3095 43.8662 45.3096C41.0443 45.3096 38.9022 44.664 37.4062 43.3721C35.8763 42.0801 35.1279 40.3797 35.1279 38.3057C35.128 36.8778 35.5362 35.586 36.4541 34.498C37.2361 33.4781 38.1544 32.8324 39.2764 32.5264V32.4238C38.0864 31.9819 37.2364 31.2679 36.6924 30.418C36.1824 29.602 35.9102 28.5818 35.9102 27.4258C35.9102 25.6579 36.5561 24.1958 37.916 23.0059C39.378 21.6799 41.3844 21 43.9004 21ZM29.9258 36.7764H33.3936V39.8018H29.9258V44.7998H26.2881V39.8018H15V36.1641L26.4238 21.4424H29.9258V36.7764ZM64.2256 39.1338C65.6196 39.1338 66.7422 40.2566 66.7422 41.6846C66.742 43.1124 65.6194 44.2344 64.2256 44.2344C62.8319 44.2341 61.7102 43.1122 61.71 41.6846C61.71 40.2567 62.8318 39.134 64.2256 39.1338ZM43.7979 34.0898C42.1319 34.0899 40.9418 34.4983 40.0918 35.2803C39.242 36.0283 38.834 37.0486 38.834 38.2725C38.8341 39.4622 39.2421 40.38 40.126 41.1279C40.976 41.8419 42.1999 42.2158 43.7979 42.2158C45.3619 42.2158 46.6201 41.8077 47.5381 41.0938C48.3539 40.3799 48.7958 39.4622 48.7959 38.2725C48.7959 37.0147 48.388 36.0284 47.5723 35.3145C46.6883 34.4985 45.4639 34.0898 43.7979 34.0898ZM18.1279 36.7764H26.2881V26.3037H26.2197L18.1279 36.7764ZM64.2256 26.248C65.6195 26.248 66.742 27.37 66.7422 28.7979C66.7422 30.2259 65.6196 31.3477 64.2256 31.3477C62.8318 31.3474 61.71 30.1917 61.71 28.7979C61.7101 27.4041 62.8319 26.2483 64.2256 26.248ZM43.832 24.0596C42.4722 24.0596 41.3502 24.4338 40.5342 25.1816C39.8203 25.8275 39.4464 26.6097 39.4463 27.5615C39.4463 28.6495 39.7521 29.5003 40.3301 30.1123C41.0441 30.8602 42.2002 31.2676 43.832 31.2676C45.4299 31.2676 46.62 30.8602 47.334 30.1123C47.912 29.5003 48.2178 28.6495 48.2178 27.5615C48.2176 26.6097 47.8438 25.8275 47.1299 25.1816C46.2799 24.4338 45.1919 24.0596 43.832 24.0596Z" fill="black"/>
</svg>
