<svg width="60" height="60" viewBox="0 0 60 60" fill="none" xmlns="http://www.w3.org/2000/svg">
<path d="M31.1088 5.04167C33.8732 5 36.6165 5.02083 39.3598 5C39.5286 8.18746 40.6892 11.4374 43.0527 13.6874C45.4161 15.9999 48.7503 17.0624 52 17.4165V25.8122C48.9613 25.7081 45.9015 25.0831 43.1371 23.7914C41.9342 23.2498 40.8158 22.5623 39.7185 21.854C39.6974 27.9372 39.7396 34.0205 39.6763 40.0829C39.5075 42.9995 38.5368 45.8953 36.8275 48.2911C34.0631 52.2911 29.2729 54.8952 24.3561 54.9785C21.3385 55.1452 18.3209 54.3327 15.7464 52.8327C11.4838 50.3536 8.48725 45.812 8.04411 40.937C8.0019 39.8954 7.9808 38.8537 8.023 37.8329C8.40284 33.8746 10.3865 30.083 13.4674 27.4997C16.9703 24.4998 21.8661 23.0623 26.4452 23.9164C26.4874 26.9997 26.3608 30.083 26.3608 33.1663C24.2717 32.4997 21.8238 32.6872 19.988 33.9371C18.6585 34.7913 17.6456 36.1038 17.1181 37.5829C16.6749 38.6454 16.8015 39.8121 16.8226 40.937C17.3291 44.3537 20.6632 47.2286 24.2084 46.9161C26.5718 46.8953 28.8298 45.5412 30.0537 43.562C30.4546 42.8745 30.8978 42.1662 30.9189 41.3537C31.1299 37.6246 31.0455 33.9163 31.0666 30.1872C31.0877 21.7915 31.0455 13.4166 31.1088 5.04167Z" fill="#9A9A9A"/>
</svg>
