<svg width="42" height="42" viewBox="0 0 42 42" fill="none" xmlns="http://www.w3.org/2000/svg">
<path d="M6.11991 14.1129L8.37122 33.2491H33.6466L35.8978 14.1129L28.8806 18.7911L21.0089 7.77071L13.1371 18.7911L6.11991 14.1129ZM4.9101 9.09992L12.2588 13.9991L19.5848 3.74273C20.1465 2.95626 21.2396 2.77411 22.026 3.33586C22.1832 3.4481 22.3206 3.58558 22.4329 3.74273L29.7589 13.9991L37.1075 9.09992C37.9118 8.56381 38.9982 8.7811 39.5344 9.58528C39.7649 9.93112 39.8648 10.3477 39.8164 10.7605L36.9408 35.2035C36.837 36.0848 36.0901 36.7491 35.2027 36.7491H6.81503C5.92764 36.7491 5.1807 36.0848 5.07702 35.2035L2.20136 10.7605C2.08844 9.8006 2.77503 8.93092 3.73491 8.81799C4.1477 8.76943 4.56428 8.86937 4.9101 9.09992ZM21.0089 26.2491C19.0759 26.2491 17.5089 24.6822 17.5089 22.7491C17.5089 20.8161 19.0759 19.2491 21.0089 19.2491C22.9418 19.2491 24.5089 20.8161 24.5089 22.7491C24.5089 24.6822 22.9418 26.2491 21.0089 26.2491Z" fill="black"/>
</svg>
