<?xml version="1.0" encoding="UTF-8"?>
<svg id="_图层_2" data-name="图层 2" xmlns="http://www.w3.org/2000/svg" viewBox="0 0 184.05 71.55">
  <defs>
    <style>
      .cls-1 {
        fill: #fff;
      }
    </style>
  </defs>
  <g id="_图层_1-2" data-name="图层 1">
    <path class="cls-1" d="M7.07,0h0C3.39,0,.4,2.99.4,6.67s2.99,6.67,6.67,6.67,6.67-2.99,6.67-6.67S10.75,0,7.07,0"/>
    <path class="cls-1" d="M33.28,0h0c-3.68,0-6.67,2.99-6.67,6.67s2.99,6.67,6.67,6.67,6.67-2.99,6.67-6.67-2.99-6.67-6.67-6.67"/>
    <path class="cls-1" d="M59.49,0h0c-3.68,0-6.67,2.99-6.67,6.67s2.99,6.67,6.67,6.67,6.67-2.99,6.67-6.67-2.99-6.67-6.67-6.67"/>
    <path class="cls-1" d="M115.81,0h0c-3.68,0-6.67,2.99-6.67,6.67s2.99,6.67,6.67,6.67c1.92,0,3.64-.81,4.86-2.1-1.12-1.19-1.81-2.8-1.81-4.57s.69-3.37,1.81-4.57c-1.22-1.29-2.94-2.1-4.86-2.1"/>
    <path class="cls-1" d="M125.53,0h0c-1.92,0-3.64.81-4.86,2.1-1.12,1.19-1.81,2.8-1.81,4.57,0,3.68,2.99,6.67,6.67,6.67,1.92,0,3.64-.81,4.86-2.1-1.12-1.19-1.81-2.8-1.81-4.57s.69-3.38,1.81-4.57c-1.22-1.29-2.94-2.1-4.86-2.1"/>
    <path class="cls-1" d="M135.25,0h0c-1.92,0-3.64.81-4.86,2.1-1.12,1.19-1.81,2.8-1.81,4.57,0,3.68,2.99,6.67,6.67,6.67s6.67-2.99,6.67-6.67-2.99-6.67-6.67-6.67"/>
    <path class="cls-1" d="M177.38,0h0c-3.68,0-6.67,2.99-6.67,6.67s2.99,6.67,6.67,6.67,6.61-2.93,6.67-6.56v-.22c-.06-3.63-3.02-6.56-6.67-6.56"/>
    <polygon class="cls-1" points="46 36.39 39.97 36.39 22.97 65.48 6.08 36.39 0 36.39 0 70.97 6.08 70.97 6.08 48 19.69 70.97 26.31 70.97 39.97 47.82 39.97 70.97 46 70.97 46 36.39"/>
    <path class="cls-1" d="M58.42,54.96c.46-1.85,1.47-3.37,3.04-4.56,1.57-1.19,3.56-1.79,5.98-1.79s4.25.56,5.71,1.68c1.46,1.12,2.26,2.68,2.4,4.67h-17.13ZM67.6,43.81c-3.06,0-5.75.57-8.08,1.71-2.33,1.14-4.15,2.76-5.47,4.86-1.31,2.1-1.97,4.52-1.97,7.36s.68,5.3,2.03,7.36c1.35,2.07,3.22,3.66,5.6,4.78,2.2,1.03,4.67,1.59,7.41,1.67h1.42c2.36-.07,4.41-.46,6.16-1.19,1.92-.8,3.44-1.9,4.56-3.31s1.82-3.02,2.11-4.83h-5.71c-.43,1.35-1.35,2.43-2.75,3.25s-3.14,1.23-5.2,1.23c-1.85,0-3.47-.33-4.86-.99-1.39-.65-2.48-1.58-3.28-2.77s-1.29-2.54-1.47-4.03h23.42c.03-.5.04-.99.04-1.47,0-2.73-.44-5.04-1.32-6.93-1.03-2.23-2.6-3.9-4.72-5.02-2.11-1.12-4.86-1.68-7.92-1.68"/>
    <path class="cls-1" d="M102.34,43.82c-1.53,0-2.86.28-3.98.85-1.12.57-2.07,1.3-2.83,2.21s-1.37,1.84-1.81,2.8c-.45.96-.78,1.84-.99,2.64v-7.93h-5.92v26.57h5.92v-14.78c.33-.82.79-1.65,1.39-2.5.82-1.18,1.91-2.17,3.28-2.99s3.02-1.23,4.94-1.23v-5.64Z"/>
    <path class="cls-1" d="M110.45,57.75h0c0-2.67.78-4.84,2.35-6.51,1.57-1.67,3.77-2.51,6.62-2.51,1.99,0,3.68.36,5.07,1.09,1.39.72,2.45,1.76,3.2,3.09.75,1.33,1.12,2.95,1.12,4.83,0,1.71-.36,3.24-1.09,4.59-.73,1.35-1.8,2.41-3.2,3.17-1.41.77-3.11,1.15-5.1,1.15h0c-1.74.01-3.29-.36-4.64-1.11-1.36-.75-2.42-1.8-3.18-3.15-.77-1.35-1.15-2.9-1.15-4.64M118.03,43.81c-2.56,0-4.88.59-6.94,1.76s-3.7,2.8-4.91,4.88c-1.21,2.08-1.81,4.57-1.81,7.28s.6,5.1,1.79,7.18c1.19,2.08,2.79,3.71,4.8,4.88,2.01,1.17,4.22,1.76,6.64,1.76h.81c1.86-.1,3.45-.53,4.78-1.29,1.51-.87,2.72-2,3.63-3.39.9-1.38,1.56-2.87,1.99-4.47v2.26c0,.89.04,1.82.11,2.8.07.98.18,2.15.32,3.5h5.55v-26.57h-5.98v7.74c-.12-.49-.26-.97-.42-1.43-.72-2.1-1.91-3.77-3.58-5.02-1.68-1.25-3.93-1.87-6.78-1.87"/>
    <rect class="cls-1" x="141.83" y="33.72" width="5.92" height="37.24"/>
    <polygon class="cls-1" points="168.45 44.38 160.23 44.38 147.9 56.07 161.99 70.96 169.57 70.96 155.55 56.23 168.45 44.39 168.45 44.38"/>
    <rect class="cls-1" x="173.2" y="33.14" width="7.1" height="5.71"/>
    <rect class="cls-1" x="173.74" y="44.39" width="5.98" height="26.57"/>
  </g>
</svg>