<svg width="76" height="76" viewBox="0 0 76 76" fill="none" xmlns="http://www.w3.org/2000/svg">
<path d="M15.5519 10.8721C19.8573 8.83494 24.8099 8.40856 29.3713 9.85059C30.5637 10.2292 31.2122 11.3836 30.9348 12.6035C30.6728 13.7517 29.2941 14.5203 28.1808 14.167C27.3498 13.905 26.5 13.7064 25.6389 13.5732C24.3773 13.4319 23.1036 13.4319 21.842 13.5732C20.5967 13.7653 19.3767 14.0967 18.2053 14.5605C17.2824 14.9678 16.398 15.4579 15.5646 16.0264C15.4297 16.1183 15.2994 16.2171 15.1682 16.3135C15.1192 16.3461 15.0358 16.4035 14.9846 16.4443L14.9689 16.458L14.9025 16.5049L14.9582 16.4668C14.8432 16.5588 14.7318 16.6521 14.6213 16.7471C14.2304 17.0805 13.8564 17.4298 13.5002 17.7959C13.1439 18.162 12.8052 18.5436 12.4846 18.9395L12.4445 18.9883C12.3993 19.049 12.3542 19.1092 12.3098 19.1699C12.1638 19.3718 12.0215 19.5764 11.884 19.7842C11.3848 20.5443 10.9495 21.3444 10.5812 22.1758C10.1161 23.3471 9.78389 24.567 9.591 25.8125C9.44702 27.0798 9.44702 28.3597 9.591 29.627C9.7825 30.8634 10.1114 32.0748 10.5715 33.2383C10.7983 33.7552 11.0518 34.2599 11.3303 34.751C11.6694 35.3417 12.0435 35.9117 12.4504 36.458L12.5871 36.6279C12.691 36.7518 12.7976 36.8758 12.9045 36.999C13.1469 37.2736 13.3972 37.541 13.6555 37.8008L13.8635 38.0078L15.4025 39.5479L16.675 40.8213C16.7941 40.899 16.9052 40.9885 17.006 41.0889L17.0471 41.1299C17.9955 42.0413 18.9091 42.992 19.8391 43.9219L25.5998 49.6826L32.2385 56.3203L37.7502 61.832L38.4514 62.5312C39.1415 61.8448 39.8408 61.1654 40.5295 60.4775L47.756 53.25L55.7443 45.2617L61.5422 39.4629L62.7267 38.2764L62.7824 38.2197C63.0417 37.9614 63.2924 37.6941 63.5334 37.418C63.6291 37.3097 63.7229 37.1989 63.8156 37.0869C63.8639 37.0326 63.9482 36.9179 64.0119 36.835C64.7221 35.8596 65.3293 34.8131 65.8224 33.7119C66.2748 32.5655 66.5984 31.3721 66.7873 30.1543C66.9268 28.9099 66.9268 27.6536 66.7873 26.4092C66.597 25.1803 66.2691 23.9763 65.8107 22.8203C65.4308 21.9628 64.9779 21.1395 64.4572 20.3594C64.3088 20.1367 64.1551 19.9174 63.9953 19.7031C63.9694 19.6676 63.9507 19.6393 63.9152 19.5986C63.8796 19.5578 63.8444 19.5169 63.8117 19.4775C63.4828 19.0844 63.1385 18.7072 62.7795 18.3457C62.4203 17.984 62.0425 17.6391 61.6467 17.3125L61.5676 17.25C61.523 17.2122 61.4614 17.1618 61.4191 17.1299L61.4006 17.1162L61.3078 17.042L61.3752 17.0986C61.1611 16.9404 60.9424 16.787 60.7199 16.6387C59.9535 16.1303 59.145 15.6876 58.3039 15.3154C57.1476 14.8565 55.9434 14.5281 54.7141 14.3379C53.4697 14.1984 52.2133 14.1984 50.9689 14.3379C49.7465 14.5276 48.5482 14.8531 47.3976 15.3076C46.3513 15.7714 45.3561 16.3436 44.4289 17.0146C44.46 16.988 44.3607 17.0562 44.2932 17.1104L44.257 17.1396C44.2029 17.1804 44.1497 17.2217 44.0949 17.2617L44.2121 17.1768C44.1125 17.2568 44.0132 17.3379 43.9152 17.4199C43.6516 17.6435 43.395 17.8758 43.1447 18.1162C43.0371 18.2201 42.9305 18.3255 42.8244 18.4316L37.718 23.5381L33.3166 27.9385C32.4319 28.8231 31.0422 28.7563 30.1516 27.9385C29.2609 27.1206 29.3225 25.6025 30.1516 24.7734L30.6076 24.3174L37.3254 17.5986C38.0987 16.8243 38.8733 16.0507 39.6476 15.2773C41.247 13.6824 43.1223 12.3234 45.2004 11.418C47.8247 10.2743 50.6406 9.65497 53.5129 9.77148C56.3819 9.88494 59.1873 10.6518 61.715 12.0137C66.6995 14.7063 70.3437 19.8218 71.1408 25.4424C71.5423 28.273 71.3916 31.1553 70.5099 33.8887C69.6153 36.6786 68.0799 39.2206 66.0266 41.3105C65.1137 42.236 64.1873 43.1488 63.2678 44.0684L56.8703 50.4668L40.0441 67.293C39.2812 68.0556 38.0451 68.1355 37.1799 67.542C37.0107 67.448 36.8551 67.3308 36.718 67.1943L36.6096 67.0869L34.2609 64.7422L29.6193 60.0957L23.841 54.3174L18.0197 48.4951L13.2609 43.7373L10.6769 41.1533C8.4593 38.9357 6.78651 36.275 5.84393 33.2773C4.58519 29.274 4.72778 24.738 6.3205 20.8467C7.20815 18.6787 8.40526 16.7223 9.99725 14.9893C11.5685 13.2745 13.4543 11.8766 15.5519 10.8721Z" fill="black"/>
</svg>
