<svg width="80" height="80" viewBox="0 0 80 80" fill="none" xmlns="http://www.w3.org/2000/svg">
<path d="M58.7197 11C65.3597 13.12 69.7998 19.2402 69.7998 26.2002C69.7998 32.6001 66.04 38.2797 60.2402 40.7998L62.2402 60.5605C62.4801 62.9204 61.6799 65.3202 60.0801 67.0801C58.4801 68.8401 56.2399 69.8398 53.8799 69.8398C51.5199 69.8398 49.2396 68.84 47.6396 67.0801C46.0399 65.3202 45.2406 62.9604 45.4805 60.6006L47.4805 40.7998C41.7205 38.2798 37.9199 32.6002 37.9199 26.2002C37.9199 19.2402 42.36 13.12 49 11L51.5996 10.1602V23.3604H56.1201V10.1602L58.7197 11ZM37.1201 10.8799C38.24 10.88 39.1201 11.7599 39.1201 12.8799C39.1201 13.9998 38.24 14.8798 37.1201 14.8799H14.1602V65.7598H41.8799C42.9998 65.7598 43.8798 66.6398 43.8799 67.7598C43.8799 68.8798 42.9999 69.7998 41.9199 69.7998H10.1602V10.8799H37.1201ZM47.6396 16C44.1598 18.12 41.96 21.9603 41.96 26.2002C41.96 31.4402 45.2803 36.0006 50.2803 37.6006L51.8398 38.0801L49.5205 61C49.4005 62.24 49.7997 63.4804 50.6396 64.4004C51.4796 65.3604 52.68 65.8398 53.9199 65.8398C55.1999 65.8398 56.3602 65.3204 57.2002 64.4004C58.0402 63.4404 58.4403 62.24 58.3203 60.96L56 38.0801L57.5596 37.6006C62.5196 36.0006 65.8799 31.4402 65.8799 26.2002C65.8799 21.9602 63.6802 18.16 60.2002 16V27.3604H47.6797V16H47.6396ZM34.6396 34.3203C35.7596 34.3203 36.6396 35.2003 36.6396 36.3203C36.6396 37.4402 35.7596 38.3203 34.6396 38.3203H23.8799V55.5205H40.5205C41.6403 55.5208 42.5205 56.4007 42.5205 57.5205C42.5203 58.6402 41.6002 59.5203 40.4805 59.5205H19.8799V34.3203H34.6396ZM26.0801 18.4004C29.5201 18.4004 32.3203 21.2006 32.3203 24.6406C32.3201 28.0804 29.5199 30.8799 26.0801 30.8799C22.6402 30.8799 19.8401 28.0804 19.8398 24.6406C19.8398 21.2006 22.6401 18.4004 26.0801 18.4004ZM26.0801 22.4404C24.8402 22.4404 23.8401 23.4399 23.8398 24.6797C23.8398 25.9197 24.8401 26.9199 26.0801 26.9199C27.3201 26.9199 28.3203 25.9197 28.3203 24.6797C28.3201 23.4399 27.3199 22.4405 26.0801 22.4404Z" fill="black"/>
</svg>
