<svg width="60" height="60" viewBox="0 0 60 60" fill="none" xmlns="http://www.w3.org/2000/svg">
<path d="M30.6101 9.99902C31.9454 10.0064 35.2861 10.0387 38.8356 10.1808L40.0941 10.2357C43.6679 10.4049 47.2386 10.694 49.0096 11.1878C51.3719 11.8514 53.2286 13.7878 53.8561 16.2423C54.8554 20.14 54.9804 27.7475 54.9959 29.5885L54.9981 29.97V29.9968C54.9981 29.9968 54.9981 30.006 54.9981 30.0238L54.9959 30.4053C54.9804 32.2463 54.8554 39.8538 53.8561 43.7515C53.2199 46.215 51.3631 48.1515 49.0096 48.806C47.2386 49.2998 43.6679 49.5888 40.0941 49.758L38.8356 49.8128C35.2861 49.955 31.9454 49.9873 30.6101 49.9948L30.0241 49.9968H29.9981C29.9981 49.9968 29.9894 49.9968 29.9721 49.9968L29.3866 49.9948C26.5606 49.9793 14.7447 49.8515 10.9866 48.806C8.62437 48.1423 6.76767 46.206 6.14004 43.7515C5.14087 39.8538 5.01597 32.2463 5.00037 30.4053V29.5885C5.01597 27.7475 5.14087 20.14 6.14004 16.2423C6.77637 13.7787 8.63307 11.8423 10.9866 11.1878C14.7447 10.1421 26.5606 10.0146 29.3866 9.99902H30.6101ZM24.9981 21.2469V38.7468L39.9981 29.9968L24.9981 21.2469Z" fill="#9A9A9A"/>
</svg>
