<svg width="60" height="60" viewBox="0 0 60 60" fill="none" xmlns="http://www.w3.org/2000/svg">
<path d="M32.5709 5.00098C35.3844 5.00563 36.8101 5.02053 38.0421 5.0572L38.5274 5.07305C39.0879 5.09298 39.6409 5.11798 40.3076 5.14923C42.9679 5.27215 44.7826 5.69298 46.3764 6.31173C48.0241 6.94715 49.4159 7.80548 50.8054 9.19508C52.1929 10.5847 53.0514 11.9805 53.6889 13.6242C54.3054 15.2159 54.7264 17.0326 54.8514 19.693C54.8811 20.3597 54.9051 20.9127 54.9249 21.4733L54.9406 21.9585C54.9771 23.1903 54.9939 24.6163 54.9991 27.4299L55.0011 29.2939C55.0014 29.5217 55.0014 29.7567 55.0014 29.9992L55.0011 30.7044L54.9996 32.5687C54.9949 35.3822 54.9801 36.8082 54.9434 38.0399L54.9274 38.5252C54.9076 39.0859 54.8826 39.6389 54.8514 40.3054C54.7284 42.9659 54.3054 44.7804 53.6889 46.3742C53.0534 48.0222 52.1929 49.4139 50.8054 50.8034C49.4159 52.1909 48.0179 53.0492 46.3764 53.6867C44.7826 54.3034 42.9679 54.7242 40.3076 54.8492C39.6409 54.8789 39.0879 54.9032 38.5274 54.9227L38.0421 54.9384C36.8101 54.9752 35.3844 54.9917 32.5709 54.9972L30.7066 54.9992C30.4789 54.9992 30.2439 54.9992 30.0014 54.9992H29.2961L27.4319 54.9974C24.6184 54.9929 23.1924 54.9779 21.9605 54.9412L21.4753 54.9254C20.9147 54.9054 20.3617 54.8804 19.6951 54.8492C17.0346 54.7264 15.2221 54.3034 13.6263 53.6867C11.9805 53.0514 10.5867 52.1909 9.19713 50.8034C7.80755 49.4139 6.9513 48.0159 6.3138 46.3742C5.69505 44.7804 5.2763 42.9659 5.1513 40.3054C5.1216 39.6389 5.09738 39.0859 5.07775 38.5252L5.06203 38.0399C5.02545 36.8082 5.00878 35.3822 5.00338 32.5687L5.00305 27.4299C5.0077 24.6163 5.02258 23.1903 5.05925 21.9585L5.07513 21.4733C5.09505 20.9127 5.12005 20.3597 5.1513 19.693C5.2742 17.0305 5.69505 15.218 6.3138 13.6242C6.9492 11.9784 7.80755 10.5847 9.19713 9.19508C10.5867 7.80548 11.9826 6.94923 13.6263 6.31173C15.2201 5.69298 17.0326 5.27423 19.6951 5.14923C20.3617 5.11955 20.9147 5.09533 21.4753 5.0757L21.9605 5.05998C23.1924 5.02338 24.6184 5.0067 27.4319 5.0013L32.5709 5.00098ZM30.0014 17.4992C23.0941 17.4992 17.5013 23.0981 17.5013 29.9992C17.5013 36.9064 23.1001 42.4992 30.0014 42.4992C36.9086 42.4992 42.5014 36.9004 42.5014 29.9992C42.5014 23.092 36.9024 17.4992 30.0014 17.4992ZM30.0014 22.4992C34.1436 22.4992 37.5014 25.8559 37.5014 29.9992C37.5014 34.1414 34.1446 37.4992 30.0014 37.4992C25.8591 37.4992 22.5013 34.1427 22.5013 29.9992C22.5013 25.8569 25.8579 22.4992 30.0014 22.4992ZM43.1264 13.7492C41.4031 13.7492 40.0014 15.149 40.0014 16.8721C40.0014 18.5952 41.4011 19.9972 43.1264 19.9972C44.8494 19.9972 46.2514 18.5974 46.2514 16.8721C46.2514 15.149 44.8471 13.7471 43.1264 13.7492Z" fill="#9A9A9A"/>
</svg>
