<svg width="44" height="44" viewBox="0 0 44 44" fill="none" xmlns="http://www.w3.org/2000/svg">
<path d="M22.8132 3.46076C24.8404 3.42981 26.8521 3.44528 28.8639 3.42981C28.9877 5.79748 29.8388 8.21157 31.572 9.88286C33.3052 11.6006 35.7502 12.3898 38.1334 12.6529V18.8893C35.905 18.8119 33.6611 18.3477 31.6339 17.3882C30.7518 16.9859 29.9316 16.4752 29.1269 15.949C29.1115 20.4677 29.1424 24.9864 29.096 29.4896C28.9722 31.6561 28.2603 33.8071 27.0069 35.5868C24.9797 38.5579 21.4668 40.4923 17.8612 40.5542C15.6483 40.678 13.4353 40.0745 11.5474 38.9603C8.42146 37.1188 6.22402 33.7452 5.89904 30.1241C5.86809 29.3504 5.85262 28.5766 5.88357 27.8183C6.16212 24.8781 7.61676 22.0617 9.87611 20.1428C12.4449 17.9144 16.0351 16.8466 19.3932 17.4811C19.4242 19.7714 19.3313 22.0617 19.3313 24.3519C17.7993 23.8567 16.0042 23.996 14.6579 24.9245C13.6829 25.559 12.9401 26.5339 12.5533 27.6326C12.2283 28.4219 12.3211 29.2885 12.3366 30.1241C12.708 32.662 15.1531 34.7975 17.7529 34.5654C19.4861 34.5499 21.1419 33.5441 22.0394 32.0739C22.3334 31.5633 22.6584 31.0371 22.6739 30.4336C22.8286 27.6636 22.7667 24.909 22.7822 22.139C22.7977 15.9026 22.7667 9.68169 22.8132 3.46076Z" fill="black"/>
</svg>
