<svg width="44" height="44" viewBox="0 0 44 44" fill="none" xmlns="http://www.w3.org/2000/svg">
<path d="M33.0568 30.4642L40.9084 38.3158L38.3157 40.9085L30.4641 33.0569C27.6409 35.3155 24.0606 36.6667 20.1666 36.6667C11.0586 36.6667 3.66663 29.2747 3.66663 20.1667C3.66663 11.0587 11.0586 3.66669 20.1666 3.66669C29.2746 3.66669 36.6666 11.0587 36.6666 20.1667C36.6666 24.0607 35.3155 27.641 33.0568 30.4642ZM29.3786 29.1038C31.6204 26.7935 33 23.642 33 20.1667C33 13.0763 27.257 7.33335 20.1666 7.33335C13.0762 7.33335 7.33329 13.0763 7.33329 20.1667C7.33329 27.2571 13.0762 33 20.1666 33C23.6419 33 26.7934 31.6204 29.1038 29.3786L29.3786 29.1038Z" fill="black"/>
</svg>
