<svg width="28" height="28" viewBox="0 0 28 28" fill="none" xmlns="http://www.w3.org/2000/svg">
<path d="M21.0361 19.3863L26.0326 24.3828L24.3827 26.0327L19.3862 21.0362C17.5896 22.4735 15.3113 23.3333 12.8333 23.3333C7.03725 23.3333 2.33325 18.6293 2.33325 12.8333C2.33325 7.03734 7.03725 2.33334 12.8333 2.33334C18.6293 2.33334 23.3333 7.03734 23.3333 12.8333C23.3333 15.3113 22.4734 17.5897 21.0361 19.3863ZM18.6954 18.5206C20.122 17.0504 20.9999 15.0449 20.9999 12.8333C20.9999 8.32126 17.3453 4.66668 12.8333 4.66668C8.32117 4.66668 4.66659 8.32126 4.66659 12.8333C4.66659 17.3454 8.32117 21 12.8333 21C15.0448 21 17.0503 20.1221 18.5205 18.6955L18.6954 18.5206Z" fill="white"/>
</svg>
