<svg width="44" height="44" viewBox="0 0 44 44" fill="none" xmlns="http://www.w3.org/2000/svg">
<g clip-path="url(#clip0_463_262)">
<path d="M44.08 -1.55566H-0.08C-1.142 -1.55566 -2 -0.697664 -2 0.364336V44.5243C-2 45.5863 -1.142 46.4443 -0.08 46.4443H44.08C45.142 46.4443 46 45.5863 46 44.5243V0.364336C46 -0.697664 45.142 -1.55566 44.08 -1.55566ZM38.536 12.4543H34.702C31.696 12.4543 31.114 13.8823 31.114 15.9823V20.6083H38.29L37.354 27.8503H31.114V46.4443H23.632V27.8563H17.374V20.6083H23.632V15.2683C23.632 9.07034 27.418 5.69234 32.95 5.69234C35.602 5.69234 37.876 5.89034 38.542 5.98034V12.4543H38.536Z" fill="black"/>
</g>
<defs>
<clipPath id="clip0_463_262">
<rect width="44" height="44" fill="white"/>
</clipPath>
</defs>
</svg>
