<svg xmlns="http://www.w3.org/2000/svg" width="16" height="26" viewBox="0 0 16 26" fill="none">
  <path d="M1.5482 23.7824L0.841097 24.4895L2.25531 25.9037L2.96242 25.1966L1.5482 23.7824ZM13.7447 13.0001L14.4518 13.7072L15.1589 13.0001L14.4518 12.293L13.7447 13.0001ZM2.96242 0.803635L2.25531 0.0965286L0.841097 1.51074L1.5482 2.21785L2.96242 0.803635ZM2.25531 24.4895L2.96242 25.1966L14.4518 13.7072L13.7447 13.0001L13.0376 12.293L1.5482 23.7824L2.25531 24.4895ZM13.7447 13.0001L14.4518 12.293L2.96242 0.803635L2.25531 1.51074L1.5482 2.21785L13.0376 13.7072L13.7447 13.0001Z" fill="currentColor"/>
</svg>