<svg xmlns="http://www.w3.org/2000/svg" width="16" height="26" viewBox="0 0 16 26" fill="none">
  <path d="M14.4519 2.21764L15.159 1.51053L13.7448 0.0963211L13.0376 0.803427L14.4519 2.21764ZM2.25539 12.9999L1.54828 12.2928L0.841177 12.9999L1.54828 13.707L2.25539 12.9999ZM13.0376 25.1964L13.7448 25.9035L15.159 24.4893L14.4519 23.7822L13.0376 25.1964ZM13.7448 1.51053L13.0376 0.803427L1.54828 12.2928L2.25539 12.9999L2.9625 13.707L14.4519 2.21764L13.7448 1.51053ZM2.25539 12.9999L1.54828 13.707L13.0376 25.1964L13.7448 24.4893L14.4519 23.7822L2.9625 12.2928L2.25539 12.9999Z" fill="currentColor"/>
</svg>