<svg xmlns="http://www.w3.org/2000/svg" width="102" height="41" viewBox="0 0 102 41" fill="none">
  <g clip-path="url(#clip0_7461_1004)">
    <path d="M3.91818 7.78572C5.95762 7.78572 7.61467 6.11462 7.61467 4.0579C7.61467 2.00117 5.95762 0.330078 3.91818 0.330078C1.87873 0.330078 0.22168 2.00117 0.22168 4.0579C0.22168 6.11462 1.87873 7.78572 3.91818 7.78572Z" fill="#393939"/>
    <path d="M18.4436 7.78572C20.483 7.78572 22.1401 6.11462 22.1401 4.0579C22.1401 2.00117 20.483 0.330078 18.4436 0.330078C16.4041 0.330078 14.7471 2.00117 14.7471 4.0579C14.7471 6.11462 16.4041 7.78572 18.4436 7.78572Z" fill="#393939"/>
    <path d="M32.969 7.78572C35.0084 7.78572 36.6655 6.11462 36.6655 4.0579C36.6655 2.00117 35.0084 0.330078 32.969 0.330078C30.9295 0.330078 29.2725 2.00117 29.2725 4.0579C29.2725 6.11462 30.9295 7.78572 32.969 7.78572Z" fill="#393939"/>
    <path d="M64.1814 7.78572C66.2208 7.78572 67.8779 6.11462 67.8779 4.0579C67.8779 2.00117 66.2208 0.330078 64.1814 0.330078C62.1419 0.330078 60.4849 2.00117 60.4849 4.0579C60.4849 6.11462 62.1419 7.78572 64.1814 7.78572Z" fill="#393939"/>
    <path d="M69.5686 7.78572C71.608 7.78572 73.2651 6.11462 73.2651 4.0579C73.2651 2.00117 71.608 0.330078 69.5686 0.330078C67.5291 0.330078 65.8721 2.00117 65.8721 4.0579C65.8721 6.11462 67.5291 7.78572 69.5686 7.78572Z" fill="#393939"/>
    <path d="M74.9553 7.78572C76.9947 7.78572 78.6518 6.11462 78.6518 4.0579C78.6518 2.00117 76.9947 0.330078 74.9553 0.330078C72.9158 0.330078 71.2588 2.00117 71.2588 4.0579C71.2588 6.11462 72.9158 7.78572 74.9553 7.78572Z" fill="#393939"/>
    <path d="M98.3034 7.78572C100.343 7.78572 102 6.11462 102 4.0579C102 2.00117 100.343 0.330078 98.3034 0.330078C96.264 0.330078 94.6069 2.00117 94.6069 4.0579C94.6069 6.11462 96.264 7.78572 98.3034 7.78572Z" fill="#393939"/>
    <path d="M13.4836 38.2342H11.9762L22.1513 20.6682H25.4931V39.9947H22.1513V25.5306L22.9216 25.7374L14.5809 39.9947H10.9121L2.57148 25.7989L3.36952 25.5585V39.9947H0V20.6682H3.36952L13.4836 38.2342Z" fill="#393939"/>
    <path d="M41.9308 35.1044H45.0952C44.9345 36.116 44.5466 37.0158 43.9259 37.8039C43.3052 38.5919 42.4628 39.2067 41.3987 39.6538C40.3347 40.1009 39.06 40.3245 37.5859 40.3245C35.9122 40.3245 34.4103 40.0115 33.0913 39.3855C31.7723 38.7596 30.736 37.8709 29.9878 36.714C29.2396 35.5627 28.8628 34.1878 28.8628 32.6006C28.8628 31.0133 29.2286 29.6608 29.9546 28.4871C30.6861 27.3134 31.6947 26.408 32.986 25.7709C34.2773 25.1338 35.7681 24.8152 37.4639 24.8152C39.1598 24.8152 40.6838 25.1282 41.8532 25.7541C43.0281 26.3801 43.8982 27.3134 44.469 28.5598C45.0398 29.8005 45.2781 31.3654 45.1784 33.2545H32.1991C32.2988 34.0872 32.5704 34.8417 33.0137 35.5068C33.4571 36.1719 34.0612 36.6917 34.8315 37.0549C35.6018 37.4238 36.4996 37.6083 37.5249 37.6083C38.6665 37.6083 39.6308 37.3791 40.4067 36.9208C41.1826 36.4625 41.6925 35.8589 41.9308 35.1044ZM37.3753 27.4979C36.0341 27.4979 34.9313 27.8332 34.0612 28.4983C33.1911 29.1634 32.6313 30.0129 32.3764 31.0468H41.8698C41.7922 29.9346 41.3489 29.0628 40.5397 28.4368C39.7306 27.8109 38.6776 27.4979 37.3753 27.4979Z" fill="#393939"/>
    <path d="M48.1099 25.1394H51.3907V39.9892H48.1099V25.1394ZM56.7165 27.973C55.6525 27.973 54.7381 28.2021 53.9788 28.6604C53.2196 29.1187 52.6155 29.672 52.161 30.3315C51.7066 30.9854 51.3907 31.6225 51.2134 32.2429L51.1857 30.5718C51.2078 30.3538 51.2743 30.0185 51.3907 29.5714C51.5071 29.1243 51.69 28.6325 51.9394 28.0959C52.1832 27.5594 52.5213 27.0396 52.9425 26.531C53.3637 26.0224 53.8901 25.6144 54.5108 25.2959C55.1315 24.9773 55.8686 24.8208 56.7165 24.8208V27.9841V27.973Z" fill="#393939"/>
    <path d="M65.1738 40.3189C63.8327 40.3189 62.6079 39.9891 61.494 39.3352C60.38 38.6813 59.4933 37.7703 58.8338 36.6078C58.1743 35.4453 57.8418 34.1096 57.8418 32.595C57.8418 31.0804 58.1743 29.6887 58.8449 28.5262C59.5155 27.3637 60.4244 26.4527 61.566 25.7988C62.7076 25.1449 63.9934 24.8152 65.4121 24.8152C66.9916 24.8152 68.2385 25.1617 69.1696 25.8603C70.0951 26.5589 70.7546 27.4923 71.1536 28.666C71.5471 29.8396 71.7466 31.153 71.7466 32.6006C71.7466 33.4166 71.6302 34.2773 71.3919 35.1827C71.1536 36.0881 70.7878 36.9264 70.2835 37.7033C69.7792 38.4801 69.1086 39.1117 68.2718 39.5979C67.4349 40.0842 66.4041 40.3301 65.1794 40.3301V40.3189H65.1738ZM66.1825 37.5803C67.2853 37.5803 68.2274 37.3679 69.0089 36.9376C69.7847 36.5128 70.3777 35.9204 70.7823 35.1659C71.1869 34.4114 71.3864 33.5563 71.3864 32.6006C71.3864 31.5499 71.1813 30.6444 70.7657 29.9011C70.35 29.1578 69.7626 28.5765 68.9922 28.1741C68.2219 27.7661 67.2853 27.5649 66.1825 27.5649C64.603 27.5649 63.3838 28.0344 62.5137 28.9678C61.6436 29.9011 61.2113 31.1139 61.2113 32.6062C61.2113 33.5786 61.4219 34.4449 61.8486 35.1994C62.2698 35.9539 62.8573 36.5408 63.611 36.9599C64.3592 37.3791 65.2182 37.5859 66.1825 37.5859V37.5803ZM71.3864 25.1393H74.7005V39.9891H71.6247C71.5471 39.2346 71.4861 38.5807 71.4473 38.033C71.4085 37.4853 71.3864 36.9655 71.3864 36.4681V25.1338V25.1393Z" fill="#393939"/>
    <path d="M78.6016 19.1759H81.8824V39.9891H78.6016V19.1759ZM93.3543 25.1393L85.1023 32.7738L85.191 30.6835L93.975 39.9891H89.7742L81.9655 31.6672L88.7988 25.1337H93.3543V25.1393Z" fill="#393939"/>
    <path d="M99.9216 18.8518V22.0431H95.9868V18.8518H99.9216ZM96.2861 25.1394H99.6002V39.9892H96.2861V25.1394Z" fill="#393939"/>
  </g>
  <defs>
    <clipPath id="clip0_7461_1004">
      <rect width="102" height="40" fill="white" transform="translate(0 0.330078)"/>
    </clipPath>
  </defs>
</svg>