<svg xmlns="http://www.w3.org/2000/svg" width="24" height="24" viewBox="0 0 24 24" fill="none">
  <path d="M7 15H17C18.0392 15 19.0498 15.4399 19.8057 16.2461C20.5635 17.0545 20.9999 18.1638 21 19.333V21.5859L20.5859 22H3.41406L3 21.5859V19.333C3.00008 18.2369 3.38341 17.1936 4.05566 16.4014L4.19434 16.2461C4.95019 15.4399 5.96078 15 7 15Z" stroke="#393939" stroke-width="2" stroke-linecap="round" stroke-linejoin="round"/>
  <path d="M12 2C14.7614 2 17 4.23858 17 7C17 9.76142 14.7614 12 12 12C9.23858 12 7 9.76142 7 7C7 4.23858 9.23858 2 12 2Z" stroke="#393939" stroke-width="2" stroke-linecap="round" stroke-linejoin="round"/>
</svg>