<svg xmlns="http://www.w3.org/2000/svg" width="26" height="26" viewBox="0 0 26 26" fill="none">
  <g clip-path="url(#clip0_313_288)">
    <path d="M1 1V25H25V1H1Z" stroke="#393939" stroke-linecap="round" stroke-linejoin="bevel"/>
    <path d="M13 4.5C13.2417 4.5 13.4437 4.67145 13.4902 4.89941L13.5 5V12.5H21L21.1006 12.5098C21.3286 12.5563 21.5 12.7583 21.5 13C21.5 13.2417 21.3286 13.4437 21.1006 13.4902L21 13.5H13.5V21C13.5 21.2761 13.2761 21.5 13 21.5C12.7239 21.5 12.5 21.2761 12.5 21V13.5H5C4.72386 13.5 4.5 13.2761 4.5 13C4.5 12.7239 4.72386 12.5 5 12.5H12.5V5L12.5098 4.89941C12.5563 4.67145 12.7583 4.5 13 4.5Z" fill="#838383"/>
  </g>
  <defs>
    <clipPath id="clip0_313_288">
      <rect width="26" height="26" fill="white"/>
    </clipPath>
  </defs>
</svg>