<svg width="26" height="27" viewBox="0 0 26 27" fill="none" xmlns="http://www.w3.org/2000/svg">
<path d="M13.0239 2.35498C13.2655 2.35509 13.4676 2.5266 13.5142 2.75439L13.5239 2.85498V12.854H23.5229L23.6235 12.8638C23.8514 12.9104 24.0229 13.1124 24.0229 13.354C24.0229 13.5956 23.8514 13.7976 23.6235 13.8442L23.5229 13.854H13.5239V23.853C13.5238 24.129 13.2999 24.3529 13.0239 24.353C12.7479 24.353 12.524 24.1291 12.5239 23.853V13.854H2.5249C2.2488 13.854 2.02496 13.6301 2.0249 13.354C2.0249 13.0779 2.24876 12.854 2.5249 12.854H12.5239V2.85498L12.5337 2.75439C12.5803 2.52653 12.7823 2.35498 13.0239 2.35498Z" fill="#838383"/>
</svg>