<svg width="42" height="42" viewBox="0 0 42 42" fill="none" xmlns="http://www.w3.org/2000/svg">
<path d="M25.72 36.1905C25.872 36.1905 26.022 36.2235 26.1586 36.287C26.2952 36.3505 26.4148 36.4428 26.5083 36.5569C26.6018 36.6711 26.6668 36.804 26.6983 36.9456C26.7298 37.0873 26.7269 37.2339 26.69 37.3743L26.5 38.0952C26.3572 38.6394 26.0275 39.1225 25.5633 39.4676C25.099 39.8128 24.5269 40.0002 23.938 40H18.062C17.4731 40.0002 16.901 39.8128 16.4367 39.4676C15.9725 39.1225 15.6428 38.6394 15.5 38.0952L15.31 37.3743C15.2731 37.2339 15.2702 37.0873 15.3017 36.9456C15.3332 36.804 15.3981 36.6711 15.4917 36.5569C15.5852 36.4428 15.7048 36.3505 15.8414 36.287C15.978 36.2235 16.128 36.1905 16.28 36.1905H25.72ZM21 0C30.389 0 38 7.24857 38 16.1905C38.0015 18.8419 37.3188 21.4531 36.0119 23.7942C34.7049 26.1353 32.8138 28.1346 30.505 29.6162L30.195 29.8105L29.958 29.9514L29.353 31.681C29.1096 32.3763 28.6608 32.9899 28.0604 33.4484C27.46 33.9069 26.7335 34.1906 25.968 34.2657L25.764 34.281L25.558 34.2857H16.442C15.6375 34.2858 14.8516 34.0547 14.1871 33.6228C13.5226 33.191 13.0102 32.5783 12.717 31.8648L12.647 31.681L12.041 29.9524L11.807 29.8114C9.51805 28.4109 7.61576 26.5073 6.26014 24.2608C4.90452 22.0143 4.13524 19.4905 4.017 16.9019L4.004 16.539L4 16.1905C4 7.24857 11.611 0 21 0ZM21 3.80952C13.82 3.80952 8 9.35238 8 16.1905C8 20.7314 10.587 24.8381 14.678 27.0114C15.0642 27.2168 15.3681 27.5383 15.542 27.9257L15.601 28.0733L16.441 30.4762H25.558L26.4 28.0714C26.5581 27.6208 26.8873 27.2428 27.323 27.0114C29.3479 25.9386 31.0348 24.3696 32.2088 22.4669C33.3828 20.5643 34.0012 18.3973 34 16.1905C34 9.35238 28.18 3.80952 21 3.80952ZM21 5.71429C27.075 5.71429 32 10.4048 32 16.1905C32.0023 16.6847 31.8028 17.1605 31.4436 17.5173C31.0844 17.8741 30.5937 18.0839 30.0751 18.1024C29.5564 18.121 29.0506 17.9468 28.6643 17.6167C28.278 17.2866 28.0416 16.8264 28.005 16.3333L28 16.1905C28 14.4224 27.2625 12.7267 25.9497 11.4764C24.637 10.2262 22.8565 9.52381 21 9.52381C20.4696 9.52381 19.9609 9.32313 19.5858 8.96592C19.2107 8.60871 19 8.12422 19 7.61905C19 7.11387 19.2107 6.62939 19.5858 6.27218C19.9609 5.91497 20.4696 5.71429 21 5.71429Z" fill="black"/>
</svg>
