<svg width="48" height="48" viewBox="0 0 48 48" fill="none" xmlns="http://www.w3.org/2000/svg">
<path d="M20.108 4.18845C21.1937 3.26312 22.5735 2.75488 24 2.75488C25.4265 2.75488 26.8064 3.26312 27.892 4.18845L30.588 6.48645C30.9088 6.75999 31.3078 6.92519 31.728 6.95845L35.258 7.23845C36.68 7.35185 38.015 7.96815 39.0237 8.97682C40.0323 9.98548 40.6486 11.3205 40.762 12.7424L41.042 16.2744C41.0757 16.694 41.2409 17.0922 41.514 17.4124L43.812 20.1084C44.7374 21.1941 45.2456 22.5739 45.2456 24.0004C45.2456 25.4269 44.7374 26.8068 43.812 27.8924L41.514 30.5884C41.2409 30.9087 41.0757 31.3069 41.042 31.7264L40.762 35.2564C40.6486 36.6784 40.0323 38.0134 39.0237 39.0221C38.015 40.0307 36.68 40.647 35.258 40.7604L31.726 41.0404C31.3063 41.0747 30.908 41.2406 30.588 41.5145L27.892 43.8104C26.8064 44.7358 25.4265 45.244 24 45.244C22.5735 45.244 21.1937 44.7358 20.108 43.8104L17.412 41.5145C17.0918 41.2413 16.6936 41.0761 16.274 41.0424L12.744 40.7604C11.3221 40.647 9.98706 40.0307 8.9784 39.0221C7.96974 38.0134 7.35344 36.6784 7.24003 35.2564L6.96003 31.7264C6.92621 31.306 6.7603 30.907 6.48603 30.5864L4.19003 27.8924C3.26471 26.8068 2.75647 25.4269 2.75647 24.0004C2.75647 22.5739 3.26471 21.1941 4.19003 20.1084L6.48603 17.4124C6.75958 17.0917 6.92478 16.6927 6.95803 16.2724L7.24003 12.7424C7.35389 11.3209 7.97039 9.98631 8.97901 8.97806C9.98763 7.96981 11.3224 7.35379 12.744 7.24045L16.274 6.96045C16.6943 6.92719 17.0933 6.76199 17.414 6.48845L20.108 4.19045V4.18845ZM25.298 7.23245C24.9362 6.92418 24.4764 6.75488 24.001 6.75488C23.5257 6.75488 23.0659 6.92418 22.704 7.23245L20.008 9.53245C19.0463 10.3509 17.8509 10.845 16.592 10.9444L13.062 11.2264C12.5883 11.2644 12.1435 11.4698 11.8074 11.8059C11.4714 12.1419 11.266 12.5867 11.228 13.0604L10.946 16.5924C10.8456 17.8509 10.3508 19.0455 9.53203 20.0064L7.23203 22.7024C6.92377 23.0643 6.75446 23.5241 6.75446 23.9994C6.75446 24.4748 6.92377 24.9346 7.23203 25.2964L9.53203 27.9924C10.3512 28.9539 10.846 30.1493 10.946 31.4084L11.226 34.9384C11.264 35.4125 11.4697 35.8575 11.8062 36.1937C12.1427 36.5298 12.5879 36.735 13.062 36.7724L16.592 37.0544C17.8512 37.1545 19.0466 37.6493 20.008 38.4684L22.704 40.7684C23.0659 41.0767 23.5257 41.246 24.001 41.246C24.4764 41.246 24.9362 41.0767 25.298 40.7684L27.994 38.4684C28.9549 37.6497 30.1496 37.1549 31.408 37.0544L34.94 36.7744C35.4141 36.7365 35.8591 36.5308 36.1952 36.1943C36.5314 35.8578 36.7366 35.4126 36.774 34.9384L37.054 31.4084C37.154 30.1484 37.65 28.9544 38.47 27.9924L40.768 25.2964C41.0763 24.9346 41.2456 24.4748 41.2456 23.9994C41.2456 23.5241 41.0763 23.0643 40.768 22.7024L38.468 20.0064C37.65 19.0453 37.1559 17.8506 37.056 16.5924L36.774 13.0604C36.7361 12.5867 36.5307 12.1419 36.1946 11.8059C35.8586 11.4698 35.4138 11.2644 34.94 11.2264L31.408 10.9464C30.1494 10.8454 28.9547 10.3499 27.994 9.53045L25.298 7.23245ZM29.658 15.5144L32.486 18.3424L18.344 32.4864L15.514 29.6564L29.656 15.5164L29.658 15.5144ZM20.464 20.4644C20.1873 20.751 19.8563 20.9795 19.4902 21.1368C19.1242 21.294 18.7306 21.3767 18.3322 21.3802C17.9339 21.3837 17.5389 21.3078 17.1702 21.1569C16.8015 21.0061 16.4665 20.7833 16.1848 20.5016C15.9032 20.22 15.6804 19.885 15.5296 19.5163C15.3787 19.1476 15.3028 18.7526 15.3063 18.3542C15.3097 17.9559 15.3925 17.5622 15.5497 17.1962C15.707 16.8302 15.9355 16.4992 16.222 16.2224C16.7878 15.676 17.5456 15.3736 18.3322 15.3804C19.1188 15.3873 19.8713 15.7028 20.4275 16.259C20.9837 16.8152 21.2992 17.5677 21.3061 18.3542C21.3129 19.1408 21.0105 19.8986 20.464 20.4644ZM27.536 31.7784C27.8128 32.065 28.1438 32.2935 28.5098 32.4508C28.8758 32.608 29.2695 32.6907 29.6678 32.6942C30.0662 32.6977 30.4612 32.6218 30.8299 32.4709C31.1986 32.3201 31.5335 32.0973 31.8152 31.8156C32.0969 31.534 32.3197 31.199 32.4705 30.8303C32.6213 30.4616 32.6972 30.0666 32.6938 29.6682C32.6903 29.2699 32.6076 28.8762 32.4503 28.5102C32.2931 28.1442 32.0646 27.8132 31.778 27.5364C31.2106 26.9995 30.4561 26.7051 29.675 26.7157C28.8939 26.7264 28.1477 27.0414 27.5952 27.5936C27.0427 28.1459 26.7274 28.8919 26.7163 29.673C26.7053 30.4542 26.9993 31.2088 27.536 31.7764V31.7784Z" fill="black"/>
</svg>
