<svg width="76" height="76" viewBox="0 0 76 76" fill="none" xmlns="http://www.w3.org/2000/svg">
<path d="M59.6572 4.79688C60.6907 4.79688 61.5293 5.63491 61.5293 6.66895V24.8223H61.5205C61.4751 25.8214 60.6573 26.6191 59.6465 26.6191C58.636 26.6191 57.8178 25.8219 57.7725 24.8223H57.7637V9.67969C57.7637 8.79253 57.513 8.5411 56.626 8.54102H10.5107C9.62381 8.54103 9.37207 8.79241 9.37207 9.67969V66.3203C9.37207 67.2077 9.62381 67.459 10.5107 67.459H56.625C57.5125 67.459 57.7637 67.2077 57.7637 66.3203V53.8242H57.7666C57.7665 53.815 57.7637 53.8071 57.7637 53.7979C57.7637 52.7581 58.6069 51.915 59.6465 51.915C60.6865 51.915 61.5293 52.7581 61.5293 53.7979C61.5293 53.8071 61.5264 53.8155 61.5264 53.8242H61.5293V69.3311C61.5293 70.3651 60.6907 71.2031 59.6572 71.2031H7.47949C6.44547 71.2031 5.60744 70.3651 5.60742 69.3311V6.66895C5.60742 5.63491 6.44545 4.79688 7.47949 4.79688H59.6572ZM36.4268 48.1084C37.4602 48.1085 38.2977 48.9462 38.2979 49.9795C38.2979 51.0134 37.4602 51.8514 36.4268 51.8516H18.002C16.968 51.8514 16.1299 51.0134 16.1299 49.9795C16.1301 48.9462 16.9682 48.1085 18.002 48.1084H36.4268ZM51.5625 48.9072L46.5732 51.0977L48.916 46.2598L51.5625 48.9072ZM68.5215 27.3984C69.5548 27.3987 70.3924 28.2363 70.3926 29.2695C70.3926 29.7762 70.1896 30.2343 69.8623 30.5713L69.8711 30.5801L52.2529 48.1982L49.6055 45.5518L67.1367 28.0205C67.4793 27.6411 67.97 27.3984 68.5215 27.3984ZM45.6445 34.9521C46.6782 34.9521 47.5166 35.7902 47.5166 36.8242C47.5166 37.8578 46.6781 38.6962 45.6445 38.6963H18.002C16.9681 38.6961 16.1299 37.8577 16.1299 36.8242C16.1299 35.7903 16.968 34.9523 18.002 34.9521H45.6445ZM49.1338 21.7959C50.1677 21.7959 51.0059 22.6339 51.0059 23.668C51.0058 24.702 50.1676 25.54 49.1338 25.54H18.002C16.9681 25.5399 16.1299 24.7019 16.1299 23.668C16.1299 22.634 16.968 21.796 18.002 21.7959H49.1338Z" fill="black"/>
</svg>
